<svg id="Layer_1" data-name="Layer 1" xmlns="http://www.w3.org/2000/svg" viewBox="0 0 762.6 834"><defs><style>.cls-1{fill:#e2252b;}.cls-2{fill:#824e98;}.cls-3{fill:#ef7f1b;}.cls-4{fill:#009746;}.cls-5{fill:#fff;}.cls-6{fill:#dbe285;}.cls-7{fill:#008dd2;}.cls-8{fill:#92cdd5;}.cls-9{fill:#feed00;}</style></defs><title>CMS-Bahar-01-updated-v.1.2</title><path class="cls-1" d="M163.46,726.89c-4.71-7.36-9.49-14-13.44-21.13-16.29-29.34-27.71-60.66-36.85-92.85-5.23-18.42-9.52-37.09-11-56.24-1.07-13.59-1.82-27.2-2.35-40.82-.2-5.4.62-10.84.88-16.27.13-2.54,1-3.67,3.84-3.65q78.23.51,156.45.82c12.86.05,25.73-.13,38.6-.13,5.25,0,5.79.62,6.27,5.8,3.28,35.15,12.44,68.48,30.77,98.95.81,1.34,1.52,2.75,2.59,4.73Z" transform="translate(-99.76 -83)"/><path class="cls-2" d="M363.44,882.16c-1.51-.57-2.27-.8-3-1.13-13.23-5.89-26.82-11.12-39.59-17.88a351.39,351.39,0,0,1-36.74-22.71C269,829.84,253.93,818.9,239.83,807c-10.34-8.76-19.47-19.06-28.47-29.26-10-11.27-19.54-22.91-28.53-35-6-8.09-5.42-8.53,2.57-14.38Q251.54,680,317.67,631.63c7.9-5.78,15.89-11.43,23.75-17.27,2.17-1.61,3.58-1.5,5.28.68A248,248,0,0,0,392,659.37c11.55,8.8,24.82,15.39,37.53,22.59,3.26,1.84,4.16,3.13,2.83,6.83-9.12,25.38-18,50.85-26.91,76.31Q385.53,822,365.66,878.83A15.22,15.22,0,0,1,363.44,882.16Z" transform="translate(-99.76 -83)"/><path class="cls-3" d="M305.53,480.81H100.26V447.23l.9-.08a13,13,0,0,1,.38,1.64,3.44,3.44,0,0,1-.3,1.91c.53-7.33.64-14.73,1.65-22a352.63,352.63,0,0,1,19-74.37,387.47,387.47,0,0,1,43.67-83.56c3.64-5.32,7.52-10.46,11.43-15.87,9.7,6.67,19.05,13,28.35,19.52q50.94,35.37,101.83,70.79c10.84,7.54,21.81,14.91,32.49,22.67,7,5.05,5.9,6.22,2.4,11.39-11.59,17.16-20.59,35.6-26,55.56-3.72,13.67-6.35,27.64-9.48,41.47C306.31,477.59,306,478.87,305.53,480.81Zm-152.86-1.36-.17-.24H102.28v.24Z" transform="translate(-99.76 -83)"/><path class="cls-4" d="M467.31,292.84c-17.9-65-35.64-129.49-53.45-194.2,25.93-9.49,52.62-12,79.19-14.33a319.43,319.43,0,0,1,80,2.78c26.45,4.33,52.66,9.27,77.31,20.9Q618.83,199.7,587,292.28C547,283.41,507.29,284.12,467.31,292.84Z" transform="translate(-99.76 -83)"/><path class="cls-5" d="M152.67,479.45H102.28v-.24H152.5Z" transform="translate(-99.76 -83)"/><path class="cls-6" d="M687.75,114.79c1.48.66,2.22.95,2.92,1.32,12.81,6.75,26,12.86,38.33,20.44a352.2,352.2,0,0,1,35.16,25.08c14.44,11.58,28.71,23.48,42,36.33,9.74,9.42,18.16,20.3,26.48,31.07,9.18,11.9,18,24.15,26.16,36.76,5.49,8.47,4.86,8.87-3.5,14.18L717,367.79c-8.26,5.24-16.61,10.36-24.83,15.66-2.28,1.47-3.68,1.27-5.23-1a247.36,247.36,0,0,0-42.26-47.21c-10.95-9.54-23.75-17-36-25-3.13-2.06-3.95-3.4-2.38-7,10.77-24.73,21.31-49.55,31.87-74.37Q661.75,173.4,685.32,118A15,15,0,0,1,687.75,114.79Z" transform="translate(-99.76 -83)"/><path class="cls-7" d="M615.33,908.53c-1.57.35-2.34.57-3.12.69-14.31,2.27-28.55,5.28-42.94,6.57a353.5,353.5,0,0,1-43.18,1c-18.5-.64-37.05-1.63-55.39-4-13.44-1.72-26.71-5.39-39.81-9-14.48-4-28.87-8.57-43-13.79-9.45-3.5-9.19-4.2-5.67-13.45q29.13-76.57,58.25-153.15c3.49-9.15,7.1-18.25,10.52-27.42,1-2.54,2.19-3.21,4.8-2.31a247.81,247.81,0,0,0,62.11,12.53c14.48,1.08,29.2-.61,43.78-1.5,3.74-.23,5.19.36,6.09,4.19,6.18,26.25,12.6,52.45,19,78.65q14.28,58.53,28.59,117A14.75,14.75,0,0,1,615.33,908.53Z" transform="translate(-99.76 -83)"/><path class="cls-8" d="M843.42,771.94c-1,1.23-1.54,1.86-2.09,2.43-10.08,10.39-19.67,21.35-30.42,31a352.65,352.65,0,0,1-34,26.67c-15.18,10.58-30.62,20.92-46.7,30.05-11.79,6.68-24.6,11.7-37.28,16.64-14,5.46-28.24,10.46-42.65,14.74-9.66,2.87-9.87,2.16-12.61-7.36q-22.62-78.75-45.25-157.49c-2.7-9.41-5.26-18.85-8-28.24-.77-2.6-.18-3.89,2.45-4.73a247.76,247.76,0,0,0,57.21-27.23c12.24-7.82,23-18,34.13-27.46,2.86-2.42,4.37-2.82,7.39-.3C706.3,658,727.15,675.09,748,692.22q46.53,38.25,93.08,76.5A15.35,15.35,0,0,1,843.42,771.94Z" transform="translate(-99.76 -83)"/><path class="cls-9" d="M188.07,237.86c1-1.29,1.41-2,1.92-2.55,9.4-11,18.27-22.57,28.37-32.9a351.9,351.9,0,0,1,32.2-28.79c14.46-11.54,29.21-22.85,44.67-33,11.33-7.43,23.8-13.26,36.13-19,13.63-6.35,27.51-12.25,41.62-17.45,9.46-3.49,9.71-2.78,13,6.54Q413.66,187.86,441.29,265c3.3,9.21,6.46,18.48,9.83,27.67.93,2.54.42,3.86-2.15,4.88a247.29,247.29,0,0,0-55.34,30.83c-11.71,8.59-21.8,19.44-32.3,29.6-2.7,2.6-4.19,3.1-7.36.77-21.75-15.94-43.66-31.68-65.55-47.44q-48.88-35.19-97.8-70.37A14.86,14.86,0,0,1,188.07,237.86Z" transform="translate(-99.76 -83)"/></svg>