<?xml version="1.0" encoding="UTF-8" standalone="no"?>
<svg
   xmlns:dc="http://purl.org/dc/elements/1.1/"
   xmlns:cc="http://creativecommons.org/ns#"
   xmlns:rdf="http://www.w3.org/1999/02/22-rdf-syntax-ns#"
   xmlns:svg="http://www.w3.org/2000/svg"
   xmlns="http://www.w3.org/2000/svg"
   xmlns:sodipodi="http://sodipodi.sourceforge.net/DTD/sodipodi-0.dtd"
   xmlns:inkscape="http://www.inkscape.org/namespaces/inkscape"
   viewBox="0 0 676.21 561.79"
   version="1.1"
   id="svg34"
   sodipodi:docname="cms.svg"
   inkscape:version="0.92.3 (unknown)">
  <metadata
     id="metadata38">
    <rdf:RDF>
      <cc:Work
         rdf:about="">
        <dc:format>image/svg+xml</dc:format>
        <dc:type
           rdf:resource="http://purl.org/dc/dcmitype/StillImage" />
        <dc:title>Asset 1@1x</dc:title>
      </cc:Work>
    </rdf:RDF>
  </metadata>
  <sodipodi:namedview
     pagecolor="#ffffff"
     bordercolor="#666666"
     borderopacity="1"
     objecttolerance="10"
     gridtolerance="10"
     guidetolerance="10"
     inkscape:pageopacity="0"
     inkscape:pageshadow="2"
     inkscape:window-width="1920"
     inkscape:window-height="1007"
     id="namedview36"
     showgrid="false"
     inkscape:zoom="1.1881821"
     inkscape:cx="421.75409"
     inkscape:cy="319.18447"
     inkscape:window-x="0"
     inkscape:window-y="36"
     inkscape:window-maximized="1"
     inkscape:current-layer="svg34" />
  <defs
     id="defs4">
    <style
       id="style2">.cls-1{fill:#e2252b;}.cls-2{fill:#824e98;}.cls-3{fill:#ef7f1b;}.cls-4{fill:#2c2a28;}.cls-5{fill:#009746;}.cls-6{fill:#fff;}.cls-7{fill:#dbe285;}.cls-8{fill:#008dd2;}.cls-9{fill:#92cdd5;}.cls-10{fill:#feed00;}</style>
  </defs>
  <title
     id="title6">Asset 1@1x</title>
  <g
     id="Layer_2"
     data-name="Layer 2">
    <g
       id="Layer_1-2"
       data-name="Layer 1">
      <path
         class="cls-1"
         d="M42.91,433.73c-3.17-5-6.39-9.44-9-14.23C22.89,399.73,15.19,378.63,9,357c-3.53-12.41-6.42-25-7.44-37.88C.88,309.92.38,300.74,0,291.57c-.14-3.64.42-7.3.59-11,.09-1.71.67-2.47,2.59-2.46q52.69.35,105.38.55c8.67,0,17.34-.08,26-.08,3.54,0,3.91.42,4.23,3.9,2.21,23.68,8.38,46.13,20.73,66.66.54.9,1,1.85,1.74,3.18Z"
         id="path8" />
      <path
         class="cls-2"
         d="M177.62,538.32c-1-.38-1.53-.54-2-.76-8.91-4-18.06-7.49-26.67-12a237.57,237.57,0,0,1-24.74-15.3c-10.22-7.14-20.34-14.51-29.84-22.56-7-5.9-13.11-12.84-19.17-19.71C68.47,460.35,62,452.51,56,444.4c-4.06-5.45-3.66-5.75,1.73-9.69l89.09-65.15c5.32-3.89,10.71-7.7,16-11.63,1.47-1.09,2.42-1,3.56.45a167.07,167.07,0,0,0,30.49,29.87c7.79,5.92,16.72,10.36,25.29,15.21,2.19,1.24,2.8,2.11,1.9,4.6-6.14,17.1-12.13,34.26-18.12,51.41q-13.41,38.29-26.79,76.61A10.52,10.52,0,0,1,177.62,538.32Z"
         id="path10" />
      <path
         class="cls-3"
         d="M138.61,268H.33V245.35l.61-.06a8.51,8.51,0,0,1,.26,1.11,2.32,2.32,0,0,1-.2,1.29c.35-4.95.43-9.93,1.11-14.83a237,237,0,0,1,12.83-50.09,260.36,260.36,0,0,1,29.42-56.29c2.45-3.58,5.06-7,7.7-10.69,6.53,4.5,12.83,8.8,19.09,13.15q34.32,23.84,68.6,47.69c7.3,5.08,14.69,10,21.88,15.27,4.68,3.4,4,4.19,1.62,7.67A125.74,125.74,0,0,0,145.72,237c-2.51,9.2-4.28,18.61-6.39,27.93C139.14,265.8,138.92,266.66,138.61,268Zm-103-.92-.11-.16H1.7v.16Z"
         id="path12" />
      <path
         class="cls-4"
         d="M528.18,211.09V367.31H499.62V246.78l-.68-.12c-.85,3.22-1.74,6.44-2.54,9.69q-7.14,28.8-14.25,57.61c-4.24,17.13-8.57,34.24-12.72,51.39-.45,1.85-1.2,2.23-2.87,2.22-8.4-.06-16.81-.11-25.21,0-2,0-2.58-.79-3-2.48Q428.85,326,419.25,287q-4.54-18.57-9.07-37.15c-.25-1-.59-2-.88-3l-.66,0V367.37H379.91V211c.83,0,1.68-.15,2.54-.15,13.77,0,27.54,0,41.31-.05,1.88,0,2.54.57,3,2.38q11.5,44.12,23.16,88.17c1.36,5.15,2.73,10.3,4.56,15.52,1.05-4,2.12-8,3.14-12q7.64-29.65,15.23-59.3c2.77-10.79,5.56-21.58,8.28-32.38.36-1.43.7-2.41,2.52-2.4,14.4.07,28.8,0,43.19.06A9.06,9.06,0,0,1,528.18,211.09Z"
         id="path14"
         style="fill:#ffffff" />
      <path
         class="cls-5"
         d="M247.58,141.35c-12.06-43.82-24-87.23-36-130.82C229.05,4.14,247,2.47,264.92.88A214.72,214.72,0,0,1,318.8,2.76C336.61,5.67,354.27,9,370.88,16.84Q349.64,78.61,328.21,141C301.28,135,274.52,135.47,247.58,141.35Z"
         id="path16" />
      <path
         class="cls-4"
         d="M671.88,255.92c-3.6.16-6.7.32-9.81.43-6.52.24-13,.41-19.56.71-1.59.07-2.12-.49-2.45-2a47.39,47.39,0,0,0-2.31-7.67c-2.83-6.94-8.23-10.95-15.47-12.19-8.54-1.47-17.1-1.49-25.37,1.57-3.75,1.39-7.11,3.4-9,7.19-3,6-1.39,12.75,4.94,16.15a112.17,112.17,0,0,0,19.28,7.69c11.12,3.53,22.55,6.1,33.57,9.88,13.09,4.49,23.12,12.9,27.64,26.42,7,20.9,1,43-16.05,55.16-8,5.72-17.21,8.55-26.85,9.93a111.24,111.24,0,0,1-30.17.17c-24.66-3.22-41.9-17.38-47.59-42.86-.71-3.2-1.21-6.45-1.87-9.94,2.46-.31,4.62-.62,6.8-.85,6.74-.73,13.5-1.36,20.23-2.17,2.47-.3,3.42.24,4,3,2.52,12.35,8.71,21.93,21.6,25.42a43.19,43.19,0,0,0,28.11-1.5c8.89-3.62,13.81-11.12,13.34-20a13.2,13.2,0,0,0-5.4-10.29c-5.58-4.24-12.2-5.72-18.71-7.57-11.22-3.18-22.55-6.05-33.58-9.8-11.84-4-21.12-11.64-26.56-23.14-10.43-22.08.41-47.81,23.78-56.89,10.43-4.05,21.31-5.11,32.36-4.67,10.31.41,20.45,1.89,29.82,6.59,14.26,7.16,22.17,18.89,24.52,34.53C671.42,251.32,671.6,253.45,671.88,255.92Z"
         id="path18"
         style="fill:#ffffff" />
      <path
         class="cls-4"
         d="M353,253.67l-30.21,7.42c-1.23-3-2.18-5.9-3.53-8.57-5.69-11.21-15.1-16.83-27.47-17.46-19.82-1-33.46,10.76-38,29.28a106.81,106.81,0,0,0,.11,50.15c3,12.75,10.21,22.43,22.94,26.87,16.44,5.73,35.39,0,43-20.18,1.35-3.57,2.45-7.22,3.78-11.19l29.9,9.54a83.46,83.46,0,0,1-9.89,23.67c-10.18,16.27-25.37,24.32-44,26.51-14.68,1.72-28.9.1-42.17-6.78-17.5-9.08-29-23.34-34.23-42.22-6.1-22.12-5.89-44.41,1.61-66.18,8-23.14,23.83-38.68,47.89-44.34,18.46-4.35,36.79-3.25,53.73,6.47,13.82,7.93,22.08,20.2,26.35,35.35A14.93,14.93,0,0,1,353,253.67Z"
         id="path20"
         style="fill:#ffffff" />
      <path
         class="cls-6"
         d="M35.64,267.05H1.7v-.16H35.53Z"
         id="path22" />
      <path
         class="cls-7"
         d="M396.07,21.42c1,.44,1.5.63,2,.88,8.63,4.55,17.53,8.66,25.82,13.77A235.61,235.61,0,0,1,447.54,53c9.73,7.79,19.34,15.81,28.29,24.47,6.57,6.34,12.24,13.67,17.84,20.93,6.19,8,12.12,16.26,17.63,24.76,3.69,5.7,3.27,6-2.37,9.55q-46.59,29.58-93.18,59.15c-5.57,3.54-11.19,7-16.73,10.56-1.53,1-2.48.85-3.52-.69A166.73,166.73,0,0,0,367,169.9c-7.38-6.43-16-11.44-24.23-16.85-2.11-1.38-2.66-2.29-1.6-4.71,7.25-16.66,14.35-33.38,21.47-50.1q15.88-37.35,31.76-74.69A10.42,10.42,0,0,1,396.07,21.42Z"
         id="path24" />
      <path
         class="cls-8"
         d="M347.29,556.08c-1.06.24-1.57.39-2.1.47-9.64,1.52-19.23,3.55-28.93,4.42a237.1,237.1,0,0,1-29.08.65c-12.46-.43-25-1.1-37.31-2.68-9.06-1.15-18-3.63-26.82-6.09-9.76-2.71-19.45-5.77-28.94-9.28-6.37-2.36-6.2-2.83-3.82-9.07q19.62-51.57,39.24-103.16c2.34-6.16,4.78-12.29,7.08-18.47.64-1.71,1.48-2.16,3.24-1.56a166.66,166.66,0,0,0,41.83,8.45c9.76.73,19.67-.42,29.49-1,2.52-.16,3.5.24,4.11,2.82,4.16,17.68,8.48,35.33,12.79,53q9.62,39.42,19.26,78.84A10.47,10.47,0,0,1,347.29,556.08Z"
         id="path26" />
      <path
         class="cls-9"
         d="M500.93,464.08c-.7.82-1,1.25-1.4,1.63-6.8,7-13.26,14.38-20.5,20.89a235.08,235.08,0,0,1-22.88,18c-10.22,7.13-20.63,14.1-31.46,20.24-7.94,4.51-16.57,7.89-25.11,11.21-9.43,3.68-19,7-28.72,9.93-6.52,1.94-6.66,1.46-8.5-5q-15.24-53-30.48-106.08c-1.82-6.34-3.54-12.7-5.41-19-.51-1.75-.11-2.62,1.66-3.19a166.86,166.86,0,0,0,38.53-18.34c8.25-5.27,15.49-12.13,23-18.5,1.92-1.63,2.94-1.9,5-.2,13.94,11.66,28,23.18,42,34.72q31.34,25.77,62.7,51.53A10.4,10.4,0,0,1,500.93,464.08Z"
         id="path28" />
      <path
         class="cls-10"
         d="M59.48,104.32c.66-.87,1-1.32,1.3-1.72,6.33-7.43,12.3-15.2,19.11-22.16A236.25,236.25,0,0,1,101.58,61c9.74-7.77,19.68-15.39,30.09-22.22,7.63-5,16-8.93,24.34-12.79,9.18-4.28,18.53-8.25,28-11.76,6.37-2.34,6.55-1.87,8.8,4.41q18.6,51.95,37.22,103.91c2.22,6.2,4.35,12.45,6.62,18.64.62,1.71.28,2.6-1.45,3.28A166.94,166.94,0,0,0,198,165.29c-7.89,5.78-14.68,13.09-21.76,19.93-1.81,1.75-2.82,2.09-4.95.52-14.66-10.74-29.41-21.34-44.16-32q-32.92-23.72-65.87-47.41A10.35,10.35,0,0,1,59.48,104.32Z"
         id="path30" />
    </g>
  </g>
</svg>
